<?xml version="1.0" encoding="UTF-8" standalone="no"?>
<!-- Uploaded to: SVG Repo, www.svgrepo.com, Generator: SVG Repo Mixer Tools -->

<svg
   height="800px"
   width="800px"
   version="1.1"
   id="Layer_1"
   viewBox="0 0 512 512"
   xml:space="preserve"
   xmlns="http://www.w3.org/2000/svg"
   xmlns:svg="http://www.w3.org/2000/svg"><defs
   id="defs936" />
<path
   style="fill:#4E901E;"
   d="M325.962,325.726c0,90.012-72.969,162.981-162.981,162.981S0,415.738,0,325.726  S72.969,23.293,162.981,23.293S325.962,235.714,325.962,325.726z"
   id="path889" />

<path
   style="fill:#A4E276;"
   d="M162.981,446.911c-66.822,0-121.185-54.364-121.185-121.185c0-35.624,15.091-104.618,43.936-167.558  C115.04,94.217,146.32,65.09,162.981,65.09s47.942,29.128,77.25,93.078c28.843,62.939,43.936,131.934,43.936,167.558  C284.166,392.547,229.803,446.911,162.981,446.911z"
   id="path893" />

<path
   style="fill:#FFDAAA;"
   d="M216.484,169.051c-20.529-44.795-39.316-65.797-49.232-73.919c-3.822-2.782-6.773-1.452-8.794,0.205  c-9.98,8.272-28.626,29.304-48.979,73.713c-26.995,58.906-41.561,124.688-41.561,156.676c0,52.417,42.645,95.063,95.063,95.063  c52.418,0,95.064-42.645,95.064-95.063C258.044,293.738,243.478,227.956,216.484,169.051z"
   id="path897" />





</svg>
