<svg width="27" height="27" viewBox="0 0 27 27" fill="none" xmlns="http://www.w3.org/2000/svg">
<path d="M24.1133 13.9815H26.4904C26.365 17.2527 25.012 20.3639 22.6915 22.6872C20.253 25.1286 16.9459 26.5 13.4977 26.5H13.2185C11.4743 26.4744 9.75346 26.095 8.1599 25.3845C6.56549 24.6737 5.13168 23.6464 3.94526 22.3647C1.72974 19.9532 0.5 16.7962 0.5 13.5195C0.5 10.2427 1.72977 7.08568 3.94533 4.67423C5.13022 3.39279 6.56046 2.36316 8.15091 1.64659C9.74159 0.929914 11.46 0.541031 13.2039 0.503075C14.9478 0.465119 16.6814 0.778867 18.3017 1.42565C19.922 2.07244 21.3958 3.03904 22.6352 4.26795L22.6431 4.27578L22.6514 4.28325L23.01 4.60854L23.0104 4.60887C23.308 4.87828 23.5479 5.20549 23.7154 5.57064C23.8829 5.93579 23.9744 6.33125 23.9846 6.73298C23.9947 7.13471 23.9232 7.53429 23.7743 7.90745C23.6254 8.28059 23.4024 8.6195 23.1187 8.9036C23.1187 8.90362 23.1187 8.90363 23.1187 8.90365L14.3383 17.6819L14.3378 17.6824C14.2275 17.793 14.0965 17.8807 13.9523 17.9405C13.8082 18.0003 13.6537 18.0311 13.4977 18.0311C13.3417 18.0311 13.1872 18.0003 13.043 17.9405C12.8989 17.8807 12.7679 17.793 12.6575 17.6824L12.6573 17.6822L7.94688 12.9661L9.62842 11.2825L13.1439 14.8022L13.4977 15.1564L13.8514 14.8022L21.444 7.20053C21.4983 7.14719 21.5417 7.08377 21.5717 7.01384C21.6029 6.94103 21.619 6.86265 21.619 6.78346C21.619 6.70427 21.6029 6.62589 21.5717 6.55308C21.5405 6.48029 21.4948 6.41456 21.4373 6.35991L21.4374 6.35985L21.4305 6.35351L21.0375 5.99358L21.0338 5.99019L20.9803 5.94014C19.9694 4.93107 18.7657 4.13621 17.4411 3.60308C16.1138 3.06889 14.6925 2.80847 13.2622 2.83745C11.832 2.86643 10.4224 3.1842 9.11778 3.77172C7.8132 4.35923 6.64056 5.20437 5.67012 6.25647L5.66954 6.25709C3.85918 8.22651 2.85442 10.8052 2.85442 13.4815C2.85442 16.1577 3.85911 18.7362 5.66933 20.7056C6.63854 21.7613 7.81223 22.6084 9.11895 23.1955C10.4257 23.7825 11.8381 24.0972 13.2702 24.1203L13.2702 24.1204H13.2783H13.8648H13.8734L13.882 24.1201C16.5619 24.0274 19.1061 22.918 20.9989 21.0168C21.991 20.0297 22.778 18.8555 23.3144 17.5623C23.787 16.423 24.0569 15.2112 24.1133 13.9815Z" fill="white" stroke="white"/>
</svg>
