<?xml version="1.0" encoding="UTF-8"?>
<svg width="1200pt" height="1200pt" version="1.1" viewBox="0 0 1200 1200" xmlns="http://www.w3.org/2000/svg">
 <path d="m600 75c-139.22 0-272.76 55.312-371.26 153.74-98.438 98.484-153.74 232.03-153.74 371.26 0 139.22 55.312 272.76 153.74 371.26 98.484 98.438 232.03 153.74 371.26 153.74 139.22 0 272.76-55.312 371.26-153.74 98.438-98.484 153.74-232.03 153.74-371.26 0-139.22-55.312-272.76-153.74-371.26-98.484-98.438-232.03-153.74-371.26-153.74zm0 975c-119.34 0-233.81-47.391-318.19-131.81-84.422-84.375-131.81-198.84-131.81-318.19s47.391-233.81 131.81-318.19c84.375-84.422 198.84-131.81 318.19-131.81s233.81 47.391 318.19 131.81c84.422 84.375 131.81 198.84 131.81 318.19s-47.391 233.81-131.81 318.19c-84.375 84.422-198.84 131.81-318.19 131.81zm176.63-326.63c7.0781 7.0312 11.109 16.641 11.109 26.625s-4.0312 19.594-11.109 26.625-16.641 10.922-26.625 10.875c-9.9844 0.046875-19.547-3.8438-26.625-10.875l-150-150c-7.0312-7.0781-10.922-16.641-10.875-26.625v-337.5c0-20.719 16.781-37.5 37.5-37.5s37.5 16.781 37.5 37.5v322.13z"/>
</svg>
