<?xml version="1.0" encoding="UTF-8"?>
<svg width="1200pt" height="1200pt" version="1.1" viewBox="0 0 1200 1200" xmlns="http://www.w3.org/2000/svg">
 <path d="m797.72 402.29c-8.8516-8.8516-23.207-8.8516-32.062 0l-165.66 165.66-165.66-165.66c-8.8555-8.8555-23.207-8.8555-32.062 0-8.8516 8.8555-8.8555 23.207 0 32.062l165.66 165.66-165.66 165.65c-8.8555 8.8555-8.8516 23.207 0 32.062 8.8555 8.8555 23.207 8.8555 32.062 0l165.66-165.65 165.66 165.66c8.8555 8.8555 23.207 8.8555 32.062 0 8.8555-8.8555 8.8555-23.207 0-32.062l-165.66-165.66 165.66-165.66c8.8555-8.8555 8.8555-23.207 0-32.062z"/>
</svg>
