<svg xmlns="http://www.w3.org/2000/svg" xmlns:xlink="http://www.w3.org/1999/xlink" width="500" zoomAndPan="magnify" viewBox="0 0 375 374.999991" height="500" preserveAspectRatio="xMidYMid meet" version="1.0"><defs><clipPath id="ba1e7d43c9"><path d="M 48 168 L 326 168 L 326 367.910156 L 48 367.910156 Z M 48 168 " clip-rule="nonzero"/></clipPath></defs><g clip-path="url(#ba1e7d43c9)"><path fill="#231f20" d="M 308.773438 341.800781 C 308.773438 346.601562 304.875 350.429688 300.148438 350.429688 L 239.550781 350.429688 C 234.75 350.429688 230.925781 346.527344 230.925781 341.800781 L 230.925781 251.933594 C 230.925781 237.605469 219.300781 225.980469 204.976562 225.980469 L 170.324219 225.980469 C 156 225.980469 144.375 237.605469 144.375 251.933594 L 144.375 341.800781 C 144.375 346.601562 140.476562 350.429688 135.75 350.429688 L 74.925781 350.429688 C 70.125 350.429688 66.300781 346.527344 66.300781 341.800781 L 66.300781 168.59375 L 48.976562 168.59375 L 48.976562 341.800781 C 48.976562 356.128906 60.601562 367.757812 74.925781 367.757812 L 135.523438 367.757812 C 149.851562 367.757812 161.476562 356.128906 161.476562 341.800781 L 161.476562 251.933594 C 161.476562 247.132812 165.375 243.308594 170.101562 243.308594 L 204.75 243.308594 C 209.550781 243.308594 213.375 247.207031 213.375 251.933594 L 213.375 341.800781 C 213.375 356.128906 225 367.757812 239.324219 367.757812 L 299.925781 367.757812 C 314.25 367.757812 325.875 356.128906 325.875 341.800781 L 325.875 168.59375 L 308.550781 168.59375 Z M 308.773438 341.800781 " fill-opacity="1" fill-rule="nonzero"/></g><path fill="#231f20" d="M 204.375 15.714844 C 194.550781 7.3125 180.375 7.3125 170.550781 15.714844 L 0 161.992188 L 11.25 175.121094 L 181.875 28.839844 C 185.175781 26.066406 189.898438 26.066406 193.125 28.839844 L 363.75 175.121094 L 375 161.992188 Z M 204.375 15.714844 " fill-opacity="1" fill-rule="nonzero"/></svg>