<?xml version="1.0" encoding="UTF-8" standalone="no"?>
<!-- Created with Inkscape (http://www.inkscape.org/) -->

<svg
   version="1.1"
   id="svg2"
   width="3680"
   height="2666.6667"
   viewBox="0 0 3680 2666.6667"
   sodipodi:docname="10613778_10178.eps"
   xmlns:inkscape="http://www.inkscape.org/namespaces/inkscape"
   xmlns:sodipodi="http://sodipodi.sourceforge.net/DTD/sodipodi-0.dtd"
   xmlns="http://www.w3.org/2000/svg"
   xmlns:svg="http://www.w3.org/2000/svg">
  <defs
     id="defs6" />
  <sodipodi:namedview
     id="namedview4"
     pagecolor="#ffffff"
     bordercolor="#000000"
     borderopacity="0.25"
     inkscape:showpageshadow="2"
     inkscape:pageopacity="0.0"
     inkscape:pagecheckerboard="0"
     inkscape:deskcolor="#d1d1d1" />
  <g
     id="g8"
     inkscape:groupmode="layer"
     inkscape:label="ink_ext_XXXXXX"
     transform="matrix(1.3333333,0,0,-1.3333333,0,2666.6667)">
    <g
       id="g10"
       transform="scale(0.1)">
      <path
         d="M 0,0 H 27600 V 20000 H 0 Z"
         style="fill:none;"
         id="path12" />
      <path
         d="M 24949.6,1709.1 H 4059.53 c -63.12,34 -3751.249,2033.4 -1073.76,3879.1 1825.95,1258.8 512.11,2172.8 313.52,2749.1 -228.01,661.6 -700.54,3863.4 1744.8,4237.6 4755.55,727.8 806.52,4340 5130.91,5074.7 976.1,165.8 2037,252.7 3076.9,252.7 1343.4,0 2651.5,-145.2 3694.4,-452.5 -1.4,-4.4 -2.7,-8.7 -4.1,-13 19.5,-8.7 30.6,-13.8 42,-18.6 69.8,-29.3 139.3,-59.2 209.6,-87.2 20,-8 24.6,-18.9 26.3,-39.8 5.7,-71.7 16,-143 22.2,-214.7 0.9,-11.1 -7.3,-27.8 -16.7,-34.3 -51,-35.4 -103.9,-68 -155.6,-102.4 -41.9,-27.8 -57.3,-38.3 -57.1,-60.7 l 146.3,-276.6 c 4.4,-3 8.8,-4.3 13.9,-4.3 11,0 25.3,6.1 49.4,16.4 63.4,26.9 126.9,53.8 191.3,78.5 2.7,1 5.9,1.5 9.4,1.5 9.6,0 21,-3.6 27.4,-8.8 52.4,-42.6 102.1,-88.4 154.8,-130.5 16.4,-13 22.7,-22.3 17.7,-43.7 -20.2,-85.8 -37.9,-172 -56.4,-257.2 68,-42.8 256.8,-103.4 326.3,-103.9 32.1,77.5 66.2,156.2 97.2,236.1 9.6,24.8 19.9,32.1 48,32.5 65,1.1 130.1,8.1 194.8,16.3 6.4,0.8 12.2,1.4 17.6,1.4 16.7,0 29.1,-5.3 40.7,-24.4 40,-65.6 84,-128.7 125.1,-193.7 7.5,-11.9 15.3,-18.6 25.4,-18.6 4.7,0 9.9,1.5 15.7,4.5 87.1,45.2 174.1,90.5 261.2,135.8 21.4,11.1 10.6,27 5.2,40.7 -27.3,68.8 -54.3,137.7 -83.8,205.5 409.9,-383.9 604.2,-856.5 499.6,-1424.4 -335,-1818 2155.4,-1077.4 3721.2,-1756.9 2398.1,-1040.7 -73.9,-4247.1 1482.8,-5174.2 1446.3,-861.3 2337.4,-5110 605.9,-6522 m -6880.2,15054 c -181.6,0 -357.2,97.9 -448,269.7 h -0.1 c -34.3,64.9 -53.1,133.9 -57.7,202.8 287.7,-117.4 545,-250.8 764.8,-401 -7.4,-4.4 -14.9,-8.6 -22.6,-12.6 v 0 c -75.5,-40 -156.5,-58.9 -236.4,-58.9"
         style="fill:#ebf3fe;fill-opacity:1;fill-rule:nonzero;stroke:none"
         id="path14" />
      <path
         d="m 16542.1,11649.8 c -293.8,354.5 -366.5,805.4 -650.9,1170.4 -105.2,135.1 -311.5,293.6 -463.8,371.7 -677.3,347.3 -1324.9,-167.4 -1434.7,-883.2 -58.6,-381.8 -49.9,-864.3 60.5,-1361.5 106.5,-0.6 209.6,1.5 309.3,6.1 l 50.6,323 67.2,-313.4 c 588,56.4 1200.6,210 1548,376.3 l -63,304.4 183,-243.9 c 155.4,82.5 285.9,168.3 393.8,250.1"
         style="fill:#f7cc7f;fill-opacity:1;fill-rule:nonzero;stroke:none"
         id="path16" />
      <path
         d="m 12913.8,9305.8 1732.6,421.1 c 0,0 612.7,821.8 1202.9,1530.4 181.5,-172.4 286,-440.9 468.8,-611.5 L 15019.6,9148.4 c -46.8,-54 -114.3,-85.7 -185.7,-87.5 l -1844.7,-44.2 -75.4,289.1"
         style="fill:#f7a491;fill-opacity:1;fill-rule:nonzero;stroke:none"
         id="path18" />
      <path
         d="m 15653,9783.2 c 0,0 823.8,678 1001.2,985 177.3,307 45.8,821.3 -258.7,902.1 -304.5,80.8 -1298,-1309 -1298,-1309 l 555.5,-578.1"
         style="fill:#184655;fill-opacity:1;fill-rule:nonzero;stroke:none"
         id="path20" />
      <path
         d="m 12406.7,9247.1 c -18.2,27.9 27.4,75.4 61.5,111.1 37.9,39.4 267.2,138.5 306.2,150.5 39,11.9 373.2,-35.2 501.1,-77.1 127.9,-42 212.2,-24.7 212.2,-24.7 33.5,6.8 83.9,16 123.1,24.1 l 80.2,-298.3 c -300.3,3.8 -614.3,-18.6 -642.8,-17.9 -90.2,2.3 -255.5,96.7 -293.8,110.6 -38.4,13.9 -116,2.9 -168.2,-21.6 -52.2,-24.4 -204.3,-82.6 -229.7,-69.1 -25.5,13.6 50.2,112.4 50.2,112.4"
         style="fill:#f7a491;fill-opacity:1;fill-rule:nonzero;stroke:none"
         id="path22" />
      <path
         d="m 15559.4,11939.1 c 0,0 147.7,93.9 154.5,98.4 6.7,4.5 94,-104 102.9,-122.5 9,-18.5 33.6,-188.7 13.5,-197.6 -20.2,-9 -129.6,-64.9 -139.8,-53.7 -10.2,11.1 -131.1,275.4 -131.1,275.4"
         style="fill:#f7a491;fill-opacity:1;fill-rule:nonzero;stroke:none"
         id="path24" />
      <path
         d="m 15687.5,2262.3 c 15.6,146.5 14.7,370.8 4.1,629.3 l 510.8,16.7 c -41.2,-367.8 -73.5,-654.1 -73.5,-654.1 l 16.5,-115.3 11.6,-341.7 -1117.5,-36.6 c 0,0 233.7,114 558.6,334.9 24,16.3 78.9,67.7 89.4,166.8"
         style="fill:#f7a491;fill-opacity:1;fill-rule:nonzero;stroke:none"
         id="path26" />
      <path
         d="m 16171.3,1712.7 -1161.7,-38 c -43.1,2.4 -54.7,37.2 -40.6,59.3 29.3,45.6 163.7,82.7 313.7,158.7 268.1,-19.4 822.8,183.4 862.9,246.8 28.4,-123.3 49.4,-420.7 25.7,-426.8"
         style="fill:#13375b;fill-opacity:1;fill-rule:nonzero;stroke:none"
         id="path28" />
      <path
         d="m 13839.7,2428.8 c 60.3,134.4 129.2,347.8 199.4,596.8 l 490.7,-142.8 c -153.4,-336.9 -273.1,-599 -273.1,-599 l -20.1,-114.7 -95.3,-328.3 -1073.5,312.5 c 0,0 257.6,35.7 635,144.7 27.9,8 96.1,39.8 136.9,130.8"
         style="fill:#f7a491;fill-opacity:1;fill-rule:nonzero;stroke:none"
         id="path30" />
      <path
         d="m 14128.7,1756 -1116,324.9 c -40.2,15.7 -40.4,52.4 -20.1,69 41.9,34.3 181.3,27.8 347.5,53.4 248.8,-101.8 839,-81.4 896.9,-33.6 -11.4,-126.1 -83.9,-415.3 -108.3,-413.7"
         style="fill:#13375b;fill-opacity:1;fill-rule:nonzero;stroke:none"
         id="path32" />
      <path
         d="m 18228.1,7936 c 0,0 -2068.7,-197.1 -2776.2,-429.9 -707.5,-232.8 -985.1,-582.1 -1092.5,-1128.4 -107.5,-546.2 -546.3,-3447.8 -546.3,-3447.8 l 716.4,-89.5 743.3,1952.2 c 0,0 653.7,2203 689.6,2203 35.8,0 1817.9,304.5 1817.9,304.5 l 447.8,635.9"
         style="fill:#3c8f7c;fill-opacity:1;fill-rule:nonzero;stroke:none"
         id="path34" />
      <path
         d="m 19822.1,7774.8 c -189.3,895.1 -1934.3,107.4 -1934.3,107.4 0,0 -2086.6,26.9 -2731.4,-591 -644.8,-617.9 456.7,-4647.8 456.7,-4647.8 l 635.8,51.7 39.9,1841.4 c 3.3,152.5 -8.2,304.9 -34.3,455.2 l -256.3,1475.6 c 0,0 2686.6,-259.7 3035.8,-197 349.3,62.6 977.4,609.3 788.1,1504.5"
         style="fill:#50bfa5;fill-opacity:1;fill-rule:nonzero;stroke:none"
         id="path36" />
      <path
         d="m 16287,11670.4 c 0,0 -532.2,79.3 -744.7,305.6 l -190.2,-469.8 c 0,0 323.2,-261.5 352.7,-429.1 29.4,-167.5 49.6,-731.9 49.6,-731.9 l 283.8,154 c 0,0 325,711.8 314.7,796.4 -10.3,84.5 -65.9,374.8 -65.9,374.8"
         style="fill:#f7a491;fill-opacity:1;fill-rule:nonzero;stroke:none"
         id="path38" />
      <path
         d="m 13944,16098.1 c -279.9,378.1 -200.2,911.3 177.8,1191.2 v 0 c 378,279.8 911.3,200.2 1191.1,-177.8 279.9,-378.1 200.3,-911.4 -177.8,-1191.2 -378,-279.8 -911.3,-200.2 -1191.1,177.8 z m -972.8,-409 313,-422.9 c 24.8,-11.9 47,2 102.1,36 98.7,60.8 197.5,121.6 298.2,178.8 15.9,9.1 46.7,6.9 63.2,-2.8 97.7,-57.7 192,-121.2 290.3,-177.9 30.4,-17.5 43.3,-31.3 40.3,-68.3 -11.9,-147.6 -19.6,-295.5 -28.8,-441.7 123.7,-54.1 453,-107.2 568.6,-90.4 33.9,136.9 70.7,276.3 102,416.9 9.8,43.8 25.1,58.4 71.6,66.3 107.9,18.1 214.4,46.2 319.8,76.2 42.7,12.1 70.8,14.6 102.8,-23.6 83.1,-98.9 172.1,-192.8 256.8,-290.4 22.7,-26.2 43.6,-33.7 71.9,-13.1 133.4,97.1 266.7,194.4 400,291.5 32.8,23.9 10.8,47.7 -1.7,69.2 -63.2,108.3 -125.9,217 -192.7,323.1 -25.1,39.8 -23.1,66.7 4.2,105.8 72.4,103.6 138,211.9 211.6,326.5 145.9,-8.6 306.9,-18.1 472.4,-27.8 60.9,182.9 86.8,369.3 84,566.3 -156,39.3 -312.1,78.7 -449.7,113.3 -39,145.8 -72.1,281.7 -113,415.2 -11.8,38.6 -4.9,56.8 22.8,80.8 96.3,83.3 190,169.6 285.7,253.6 20.7,18.2 33.4,33.4 18,62 -77.4,144.8 -166,281.1 -283.7,397.4 -26.3,25.9 -45.7,24 -73.7,7.3 -112.6,-67.2 -226.4,-132.2 -338.7,-199.8 -27.2,-16.3 -44.6,-18.7 -74.9,0.6 -105.3,67 -213.5,129.5 -323.1,189.1 -28,15.3 -31.8,30.6 -30.3,57.2 8.7,147.9 16.4,295.8 24.6,447.6 -182.8,56.3 -365.8,90.8 -559.2,88.8 -40.1,-159.2 -80,-317.3 -118.1,-468.7 -153.4,-37 -301.8,-72.9 -460.7,-111.3 -75.8,84.4 -162.4,182.3 -250.6,278.7 -72.4,79.1 -52.3,82.9 -151.2,24.6 -9.4,-5.5 -20.9,-7.6 -31.4,-11.4 -79.4,-58.8 -158.9,-117.6 -238.3,-176.4 -15.3,-16.2 -28.4,-35.4 -46.2,-48.1 -46.2,-33.2 -54.5,-65 -21,-117 70,-108.4 133.3,-221.3 196.6,-333.8 8.3,-14.7 7.7,-42.4 -0.7,-57.3 -55,-97.1 -118.6,-189.8 -168.4,-289.4 -24.3,-48.8 -49.6,-58.1 -98.9,-54.3 -139.9,10.8 -280.2,15.9 -434.5,23.9 -30.1,-189.4 -59.5,-374.1 -89.3,-560.9 34.6,-9.5 54.5,-15.2 74.5,-20.2 123.4,-31.1 246.6,-63.4 370.5,-92.2 35.2,-8.2 45.7,-25.3 53.8,-59.5 27.5,-117.8 62.7,-233.8 91.1,-351.4 4.4,-18.3 -5.2,-48.1 -19.1,-61.2 -75.8,-71.7 -155.7,-139.2 -233,-209.5 -62.5,-56.8 -85.5,-78.1 -79.5,-115.4"
         style="fill:#cae1f9;fill-opacity:1;fill-rule:nonzero;stroke:none"
         id="path40" />
      <path
         d="m 18776.9,13651.1 c 33.9,632.6 574.3,1118 1206.9,1084.1 632.7,-34 1118,-574.3 1084.1,-1207 -33.9,-632.6 -574.3,-1118 -1206.9,-1084.1 -632.7,34 -1118,574.3 -1084.1,1207 z m -1361,410.2 -38,-707.7 c 15.6,-33.7 50.5,-38.2 136.9,-50.3 154.7,-21.6 309.4,-43.2 463.1,-70.2 24.2,-4.3 54.4,-33 63.1,-57.2 52,-143.7 95.3,-290.6 148.8,-433.8 16.5,-44.3 18,-69.7 -16.8,-105.5 -139,-143.1 -274,-290 -409,-433.9 82,-162.4 378.3,-500 512.7,-581.9 152.8,113 310.7,226.2 463.8,345.3 47.7,37.1 76.2,39.1 131.2,7.3 127.5,-73.7 262.2,-136 397.4,-195.3 54.7,-24 86.1,-45.6 86.6,-112.7 1.2,-174 13,-347.9 17.2,-521.9 1.2,-46.7 16.4,-72.4 63.5,-75.3 221.8,-13.7 443.7,-27 665.5,-40.6 54.5,-3.4 52.2,40.2 57.6,73.2 27.3,166.7 55.5,333.4 77.2,500.9 8.2,62.9 33.2,89 95.2,106.2 164.1,45.4 325.2,101.5 499.9,157.4 144.1,-134.1 303.1,-282.2 466.6,-434.3 220.3,137.6 407.1,308.9 573.3,515.8 -128.3,174.8 -256.6,349.6 -369.7,503.7 84.7,184.8 166.9,354.3 239,527.9 20.9,50.3 43.7,63.3 93.1,64.4 171.4,3.9 342.8,13.1 514.2,18.1 37.1,1.1 63.3,6 72,48.9 43.8,216.8 68.9,434.3 46.4,656.1 -5.1,49.4 -26.8,64.1 -70.2,70.8 -174.5,26.9 -348.5,57.2 -523.2,83.4 -42.3,6.3 -62.3,18.7 -77.3,64.8 -51.7,159.9 -110.4,317.7 -173,473.7 -16,39.8 -6.8,59.1 17.6,85.3 136,146.1 270.9,293.1 409.6,443.6 -141.4,215.4 -301.8,408.2 -504.2,572.2 -178.3,-130.9 -355.4,-260.8 -524.9,-385.2 -191,93.1 -376,183.3 -573.8,279.8 -6.3,152.6 -12.2,328.6 -21.1,504.4 -7.3,144.2 16.9,130.9 -135.8,155.3 -14.6,2.4 -28.3,10 -42.4,15.1 -133,7.2 -265.9,14.3 -398.9,21.4 -29.7,-3.7 -59.8,-12.3 -89.2,-10.3 -76.4,5.2 -112.4,-20.7 -122.2,-103.5 -20.3,-172.6 -51.5,-344 -82.4,-515.2 -4,-22.4 -28.3,-50.7 -49.9,-58.9 -140.5,-53.7 -286,-95.2 -423.2,-156 -67.1,-29.7 -101.3,-17.7 -149.2,28.6 -136,131.2 -277.4,256.9 -430.7,397.7 -193.8,-170.8 -382.9,-337.3 -574.1,-505.8 27.9,-39.5 43.5,-62.5 60,-84.9 101.4,-138.2 201.7,-277.4 305.6,-413.7 29.5,-38.7 25.8,-65.5 4.7,-107.9 -72.5,-146 -135.6,-296.6 -207,-443 -11.1,-22.7 -46.6,-45.4 -72.3,-47.2 -140.3,-9.3 -281.1,-11 -421.7,-17.5 -113.7,-5.4 -155.9,-7.7 -181.6,-51.6"
         style="fill:#9bc1f9;fill-opacity:1;fill-rule:nonzero;stroke:none"
         id="path42" />
      <path
         d="m 18640.1,16586.6 c -93,87.2 -197.4,170 -311.7,248 230.3,137.1 315,432.3 188.2,671.9 -90.8,171.7 -266.4,269.7 -448,269.7 -79.9,0 -160.9,-19 -236.5,-58.9 -182.2,-96.5 -281.4,-288.4 -268.5,-481.7 -192.8,78.6 -399.2,149.9 -617.3,214.2 32.8,102.8 65.2,204.6 98.4,308.8 90,-18.5 172,-33.9 253.3,-52.8 8.1,-1.9 15.2,-2.9 21.6,-2.9 16.2,0 28.1,7 41.4,26 38.2,54.2 83.8,102.9 124.9,155.2 6.2,8 9,24.2 5.5,33.6 -27.2,71.8 -54.3,143.8 -85.8,213.8 -15.1,33.5 -7.4,51.5 22.8,66.9 11.5,5.9 21,16 31.4,24.1 51.9,27.5 103.9,55 155.9,82.5 6.5,1.3 13.4,1.5 19.4,3.9 25.8,10.4 39,16.4 48.1,16.4 13.3,0 17.5,-12.9 38.6,-44.4 43.3,-64.5 85.5,-129.8 122.5,-186.1 96.9,8.4 187.3,16.2 280.8,24.3 35.9,85.6 73.5,175 111.3,265 113.8,-16.1 218.4,-52.7 320.8,-102.1 -18.4,-88.5 -36,-174.8 -54.4,-260.9 -3.2,-15.5 -2.4,-24.9 12.7,-36.4 59.2,-44.8 117.2,-91.2 173.1,-140 9.5,-8.3 17,-11.7 25.1,-11.7 5.7,0 11.7,1.7 18.9,4.7 72.1,29.7 144.8,57.8 217,87.2 6.8,2.8 12.7,4.4 18.1,4.4 8.9,0 16.4,-4.3 24.6,-15.2 58.8,-78.9 98.8,-166.9 131.4,-259 6.4,-18.2 -2.4,-26 -16.2,-34.8 -63.7,-40.9 -126.5,-83.3 -190.6,-123.7 -18.4,-11.6 -24.1,-21.7 -20.6,-45.4 12.2,-82.2 19.5,-165 29.4,-254.2 77.8,-32.7 166.1,-69.7 254.3,-106.8 -15.9,-116 -47.8,-223.3 -99.9,-325.4 -96.4,20.4 -190.3,40.4 -275.3,58.5 -53.4,-60.9 -101.7,-118.7 -153.5,-173.1 -19.6,-20.6 -23.1,-36.2 -11.9,-61.9 0.2,-0.5 0.5,-1.1 0.7,-1.7"
         style="fill:#ebf3fe;fill-opacity:1;fill-rule:nonzero;stroke:none"
         id="path44" />
      <path
         d="m 17893,16150.5 c -69.5,0.5 -258.3,61.1 -326.3,103.9 18.5,85.2 36.2,171.4 56.4,257.2 5,21.4 -1.3,30.7 -17.7,43.7 -52.7,42.1 -102.4,87.9 -154.8,130.5 -6.4,5.2 -17.8,8.8 -27.4,8.8 -3.5,0 -6.7,-0.5 -9.4,-1.5 -64.4,-24.7 -127.9,-51.6 -191.3,-78.5 -24.1,-10.3 -38.4,-16.4 -49.4,-16.4 -5.1,0 -9.5,1.3 -13.9,4.3 l -146.3,276.6 c -0.2,22.4 15.2,32.9 57.1,60.7 51.7,34.4 104.6,67 155.6,102.4 9.4,6.5 17.6,23.2 16.7,34.3 -6.2,71.7 -16.5,143 -22.2,214.7 -1.7,20.9 -6.3,31.8 -26.3,39.8 -70.3,28 -139.8,57.9 -209.6,87.2 -11.4,4.8 -22.5,9.9 -42,18.6 1.4,4.3 2.7,8.6 4.1,13 218.1,-64.3 424.5,-135.6 617.3,-214.2 4.6,-68.9 23.4,-137.9 57.7,-202.8 h 0.1 c 90.8,-171.8 266.4,-269.7 448,-269.7 79.9,0 160.9,18.9 236.4,58.9 v 0 c 7.7,4 15.2,8.2 22.6,12.6 114.3,-78 218.7,-160.8 311.7,-248 29.5,-67.8 56.5,-136.7 83.8,-205.5 5.4,-13.7 16.2,-29.6 -5.2,-40.7 -87.1,-45.3 -174.1,-90.6 -261.2,-135.8 -5.8,-3 -11,-4.5 -15.7,-4.5 -10.1,0 -17.9,6.7 -25.4,18.6 -41.1,65 -85.1,128.1 -125.1,193.7 -11.6,19.1 -24,24.4 -40.7,24.4 -5.4,0 -11.2,-0.6 -17.6,-1.4 -64.7,-8.2 -129.8,-15.2 -194.8,-16.3 -28.1,-0.4 -38.4,-7.7 -48,-32.5 -31,-79.9 -65.1,-158.6 -97.2,-236.1"
         style="fill:#dbe9fd;fill-opacity:1;fill-rule:nonzero;stroke:none"
         id="path46" />
      <path
         d="m 10730.1,11029.6 h 2241.1 c 59.3,0 112.7,-35.8 135.2,-90.7 l 690,-1683 h 1235.5 c 34.6,0 62.6,-28 62.6,-62.5 0,-34.5 -28,-62.5 -62.6,-62.5 h -3516.3 c -96.7,0 -184.4,56.7 -224,144.9 l -694.8,1547.8 c -43.4,96.7 27.4,206 133.3,206"
         style="fill:#b75742;fill-opacity:1;fill-rule:nonzero;stroke:none"
         id="path48" />
      <path
         d="m 11936.7,10049.6 c 15.2,-75.6 81.1,-126.2 147.3,-112.9 66.2,13.2 107.6,85.2 92.5,160.8 -15.2,75.6 -81.1,126.2 -147.3,112.9 -66.2,-13.2 -107.6,-85.2 -92.5,-160.8"
         style="fill:#ffffff;fill-opacity:1;fill-rule:nonzero;stroke:none"
         id="path50" />
      <path
         d="m 17173.2,1709.1 -1124.1,7172.7 -220.7,-34.6 1118.6,-7138.1 h 226.2"
         style="fill:#13375b;fill-opacity:1;fill-rule:nonzero;stroke:none"
         id="path52" />
      <path
         d="M 8284.87,1709.1 9408.91,8881.8 9629.63,8847.2 8511.02,1709.1 H 8284.87"
         style="fill:#13375b;fill-opacity:1;fill-rule:nonzero;stroke:none"
         id="path54" />
      <path
         d="m 16930.5,8777.7 h -8403 c -98.38,0 -178.13,86.4 -178.13,193.1 0,106.6 79.75,193.1 178.13,193.1 h 8403 c 98.4,0 178.2,-86.5 178.2,-193.1 0,-106.7 -79.8,-193.1 -178.2,-193.1"
         style="fill:#13375b;fill-opacity:1;fill-rule:nonzero;stroke:none"
         id="path56" />
      <path
         d="m 9129.14,6067.8 h 7275.06 v 237.5 H 9129.14 v -237.5"
         style="fill:#13375b;fill-opacity:1;fill-rule:nonzero;stroke:none"
         id="path58" />
      <path
         d="m 6191.74,3439.2 h 61.28 c 20.18,206.3 59.87,434.1 130.5,672.5 267.1,901.5 150.24,1018.1 600.99,1581.7 450.74,563.5 484.13,1732.1 484.13,1732.1 0,0 217.03,1327.2 0,1911.5 -217.02,584.3 -233.72,1168.6 -759.59,1786.3 0,0 -100.16,-826.4 -225.37,-1202 -125.2,-375.6 -244.1,-734.5 -151.27,-1636 92.84,-901.5 150.51,-976.6 171.76,-1210.4 21.25,-233.7 -12.14,-1218.9 37.94,-1381.5 50.09,-162.7 -292.15,-1289.6 -317.19,-1773.7 -7.53,-145.5 -21.07,-311.3 -33.18,-480.5"
         style="fill:#215e4b;fill-opacity:1;fill-rule:nonzero;stroke:none"
         id="path60" />
      <path
         d="m 6383.73,3439.2 c 86.95,200.6 240.04,400 508.09,519.7 701.15,313 1174.16,306 1499.7,1057.3 325.54,751.2 325.54,1777.9 438.23,1990.8 0,0 -300.5,50 -601,-488.3 -300.5,-538.4 -504.34,-939.1 -677.87,-1252.1 -173.54,-313 -423.96,-225.4 -636.81,-463.3 -178.38,-199.4 -343.1,-663.2 -405.68,-898.5 -20.33,-76.5 -49.88,-150.1 -88.88,-219 -35.48,-62.6 -77.22,-138.7 -102.26,-193 -5.57,-12.1 -11.1,-30.5 -16.54,-53.6 h 83.02"
         style="fill:#3c8f7c;fill-opacity:1;fill-rule:nonzero;stroke:none"
         id="path62" />
      <path
         d="m 4405.24,6999.8 c -50.08,-642.7 358.93,-592.6 375.62,-1001.7 16.69,-409 550.91,-1101.8 798.41,-1594.3 128.72,-256.1 176.25,-647.7 192.24,-964.6 h 198.85 c -76.91,802 -402.33,1360.3 -596.85,1807.7 -250.41,576 -287.98,838.9 -75.13,1289.6 212.86,450.8 -100.16,1615.2 202.86,2134.3 303.01,519.2 147.72,1334 78.03,1647 -69.7,313 7.09,525.9 69.69,855.9 62.61,330 -69.69,809.4 -69.69,809.4 -11.28,-409.1 -322.62,-968.3 -548,-1327.2 -225.37,-359 -651.07,-1335.6 -600.99,-1778 50.09,-442.4 25.04,-475.8 25.04,-475.8 -158.59,-592.6 0,-759.6 -50.08,-1402.3"
         style="fill:#215e4b;fill-opacity:1;fill-rule:nonzero;stroke:none"
         id="path64" />
      <path
         d="m 5598.33,3961.5 c 25.58,-76.7 107.56,-272.7 182.59,-522.3 h 121.94 c -55.48,317.8 -151.24,686.5 -312.87,897.9 -325.54,425.7 -976.62,609.3 -1051.74,918.2 -75.12,308.8 8.34,1235.4 -467.44,1752.9 0,0 66.77,-576.2 0,-730.5 -66.78,-154.3 -634.38,-872.2 -300.5,-1473.1 333.89,-601 1085.13,-525.9 1318.85,-659.5 233.72,-133.5 467.44,-58.4 509.17,-183.6"
         style="fill:#3c8f7c;fill-opacity:1;fill-rule:nonzero;stroke:none"
         id="path66" />
      <path
         d="m 5297.84,6733.3 c -8.35,-617.7 475.78,-851.5 467.44,-1193.7 -8.35,-342.2 100.16,-709.5 191.98,-985 58.13,-174.3 25.95,-659.8 15.67,-1115.4 h 134.34 c 33.83,334.8 70.9,817.9 58.67,1032 -16.69,292.1 116.86,525.8 133.56,1035 16.69,509.2 125.2,968.3 -100.17,1611 -225.37,642.8 -183.64,1410.7 -1126.86,2120.2 0,0 -166.95,-751.2 -41.74,-1160.3 125.21,-409 275.46,-726.2 267.11,-1343.8"
         style="fill:#3c8f7c;fill-opacity:1;fill-rule:nonzero;stroke:none"
         id="path68" />
      <path
         d="m 5297.84,6733.3 c -8.35,-617.7 475.78,-851.5 467.44,-1193.7 -8.35,-342.2 100.16,-709.5 191.98,-985 58.13,-174.3 25.95,-659.8 15.67,-1115.4 h 55.75 c 7.54,95.2 14.84,155 14.84,155 l 27.82,1151.9 c 0,0 -55.65,901.5 -155.81,1636 -100.17,734.6 -843.06,2855.3 -843.06,2855.3 0,0 -166.95,-751.2 -41.74,-1160.3 125.21,-409 275.46,-726.2 267.11,-1343.8"
         style="fill:#327f6b;fill-opacity:1;fill-rule:nonzero;stroke:none"
         id="path70" />
      <path
         d="M 6253.4,3966.3 H 4960.55 c -88.4,0 -153.62,-82.7 -133.18,-168.9 l 471.29,-1987.3 c 14.66,-61.8 69.77,-105.5 133.18,-105.5 h 731.47 90.09 731.47 c 63.41,0 118.51,43.7 133.18,105.5 l 471.29,1987.3 c 20.44,86.2 -44.78,168.9 -133.18,168.9 H 6253.4"
         style="fill:#f7cc7f;fill-opacity:1;fill-rule:nonzero;stroke:none"
         id="path72" />
      <path
         d="m 14110.7,13984.6 43.2,-207.5 296.7,-100.1 21.9,-252.8 -65,210.4 -317,85.6 20.2,264.4"
         style="fill:#50bfa5;fill-opacity:1;fill-rule:nonzero;stroke:none"
         id="path74" />
      <path
         d="m 15234.8,14285.4 189.8,-52.7 -342.4,-549.1 146.8,449.5 -205.7,71.1 345.9,502.8 -134.4,-421.6"
         style="fill:#f47458;fill-opacity:1;fill-rule:nonzero;stroke:none"
         id="path76" />
      <path
         d="m 15998.2,13703.2 102.7,-92.4 -386.5,-238 232.5,236.6 -107,108.8 374.4,207.9 -216.1,-222.9"
         style="fill:#466eb6;fill-opacity:1;fill-rule:nonzero;stroke:none"
         id="path78" />
      <path
         d="m 16287,11670.4 c 0,0 601.4,96.6 1383.7,-475.2 782.4,-571.7 1986.8,-2559.3 2091.5,-3259.2 0,0 -1610,-102.3 -1931.6,-31.5 0,0 58.5,546.8 -86.1,748.7 -144.5,201.9 -214.3,598.8 -660.3,756.9 -190,67.3 -402.6,76.2 -603.6,102.2 -362.8,47.1 -653.3,323.9 -716.6,684.3 l -3.6,20.5 c -16.8,95.9 -5.6,194.7 32.3,284.5 l 494.3,1168.8"
         style="fill:#466eb6;fill-opacity:1;fill-rule:nonzero;stroke:none"
         id="path80" />
      <path
         d="m 19016.2,1716.1 -325.6,1.6 c 43,1785.1 80.8,4496 9.1,4648.1 0.2,-0.5 4.7,-9.8 21.6,-20.5 l 264.2,86.6 c 42.7,-27 68.5,-43.3 77.4,-802.4 4.6,-390.6 2.8,-930.1 -5.2,-1603.4 -13.7,-1146.1 -41.2,-2298.5 -41.5,-2310"
         style="fill:#13375b;fill-opacity:1;fill-rule:nonzero;stroke:none"
         id="path82" />
      <path
         d="m 19970,1919.8 h -2196.3 c -101.2,0 -183.2,-82 -183.2,-183.1 0,-17.7 14.4,-32.1 32.1,-32.1 h 2498.5 c 17.7,0 32,14.4 32,32.1 0,101.1 -82,183.1 -183.1,183.1"
         style="fill:#13375b;fill-opacity:1;fill-rule:nonzero;stroke:none"
         id="path84" />
      <path
         d="m 19012.9,2100.5 h -269 c -79.6,0 -144.1,-64.6 -144.1,-144.2 0,-79.6 64.5,-144.1 144.1,-144.1 h 269 c 79.6,0 144.2,64.5 144.2,144.1 0,79.6 -64.6,144.2 -144.2,144.2"
         style="fill:#13375b;fill-opacity:1;fill-rule:nonzero;stroke:none"
         id="path86" />
      <path
         d="m 17309.6,6431.9 -187,44.9 218.2,908.2 c 125.7,523.2 588.9,903.8 1126.6,925.6 l 2345.6,94.8 7.8,-192.1 -2345.6,-94.9 c -452.1,-18.2 -841.7,-338.3 -947.4,-778.3 l -218.2,-908.2"
         style="fill:#13375b;fill-opacity:1;fill-rule:nonzero;stroke:none"
         id="path88" />
      <path
         d="m 19944,6727.2 c 0,0 -2629.7,-45 -2903.8,0 -274.2,45 -392.8,-298.7 -311,-478.8 81.8,-180 306.9,-249.6 638.3,-265.9 331.5,-16.4 3089.3,-94.2 3167.1,-20.5 63.5,60.2 899.5,2918.4 1203.7,3963.7 60.8,208.9 -59.1,427.2 -267.9,488.5 -207.8,61 -425.9,-56.9 -488.7,-264.1 L 19944,6727.2"
         style="fill:#f47458;fill-opacity:1;fill-rule:nonzero;stroke:none"
         id="path90" />
      <path
         d="m 17176.3,6345.2 c 13.1,-24.4 62.3,-56 170,-243.7 31.1,-54.2 29.6,-143 29.6,-143 0,0 -2.7,-109.1 -28.8,-115.6 -26.2,-6.6 -53.6,13.7 -61,33.6 -7.4,20 -1,63.2 -8.3,83.2 -7.4,19.9 -68.6,50.1 -93.2,52.3 -24.7,2.3 -21.8,-319.6 -21.8,-319.6 0,0 5.3,-92.3 9.5,-122.8 3.5,-26.1 20.5,-103.4 20.5,-103.4 0,0 18,-111.1 -17.4,-114.5 -20.8,-1.9 -64.6,92.5 -91.6,190 -29.1,105 -41,213.7 -52.1,213.8 -26,0.3 -28.6,-176.3 -28.6,-176.3 0,0 18.2,-83.7 14,-121.3 19.9,-49.7 28,-137.9 -15.3,-138.9 -8,-0.3 -54.1,116.7 -54.1,116.7 0,0 -14.9,79.9 -24.4,117.6 -16.9,66.5 -11,166.9 -18.7,212.7 -6.5,38 -16.8,24.2 -20.7,26.3 -3,1.7 -2.2,-49.7 -2.4,-120.1 -0.1,-35.4 -8.1,-75.2 -1.6,-116.5 6,-38.3 6.4,-91.9 5.9,-124.1 -1.5,-91.4 -59.7,-73.8 -72.4,11.7 -4.9,32.6 -9.9,68.1 -14.8,104 -19.1,140 -6,270.4 -21.1,273.6 -19.6,4.2 -28.7,-235.3 -28.7,-235.3 0,0 -42.5,-127.3 -61.1,-1 -21.6,146.6 -7.3,261.6 -6.3,266.6 6.4,34.2 -8.1,161.5 33.2,276.4 30.4,84.8 77.4,205.2 100,262.7 l 361.7,-45.1"
         style="fill:#f8a492;fill-opacity:1;fill-rule:nonzero;stroke:none"
         id="path92" />
      <path
         d="m 16792.5,6005.2 379.4,298.9 c 64.6,544 167.8,2035.7 200.5,2118.8 34.1,86.6 -189.5,2130.1 -189.5,2130.1 l -674.5,-484.5 281,-1543.1 c -5,-84.3 19.5,-2500.1 3.1,-2520.2"
         style="fill:#f8a492;fill-opacity:1;fill-rule:nonzero;stroke:none"
         id="path94" />
      <path
         d="m 16338.1,9470.4 1068.9,203.9 c 0,0 -85.1,907 -170.3,1281.6 -188.5,828.2 -1084,971.5 -1084,278.9 0,-510.1 185.4,-1764.4 185.4,-1764.4"
         style="fill:#184655;fill-opacity:1;fill-rule:nonzero;stroke:none"
         id="path96" />
      <path
         d="m 15520.5,11351.3 c 64.9,176.8 55.9,565.6 55.9,565.6 l -7.7,33.4 c -9.2,8.4 -18.1,16.9 -26.4,25.7 l -190.2,-469.8 c 0,0 82.8,-67 168.4,-154.9"
         style="fill:#f47458;fill-opacity:1;fill-rule:nonzero;stroke:none"
         id="path98" />
      <path
         d="m 14941.6,12948.1 c 0,0 278.6,32.3 453.3,-194.1 174.6,-226.4 362.9,-926.6 -71,-1307.3 -433.9,-380.7 -862.6,50.2 -926.2,507.1 -63.5,456.9 -88.2,1010.8 543.9,994.3"
         style="fill:#f7a491;fill-opacity:1;fill-rule:nonzero;stroke:none"
         id="path100" />
      <path
         d="m 14269.4,11960.5 c 51.8,-100.9 138.7,-156.7 194.1,-124.8 55.5,32 58.5,139.7 6.7,240.7 -51.8,100.9 -138.8,156.7 -194.2,124.8 -55.5,-32 -58.4,-139.8 -6.6,-240.7"
         style="fill:#f7a491;fill-opacity:1;fill-rule:nonzero;stroke:none"
         id="path102" />
      <path
         d="m 14910.4,13023 c 0,0 372.3,-665.9 638.6,-696.6 266.3,-30.8 301.3,-384.6 301.3,-384.6 0,0 -95.3,815.3 -358.9,972.5 -263.7,157.2 -581,108.7 -581,108.7"
         style="fill:#f7cc7f;fill-opacity:1;fill-rule:nonzero;stroke:none"
         id="path104" />
      <path
         d="m 15479.1,12159.1 c -21.6,-118.3 21.9,-226.7 97.3,-242.2 75.4,-15.6 154.1,67.7 175.8,186 21.6,118.2 -21.9,226.6 -97.3,242.2 -75.4,15.5 -154.1,-67.8 -175.8,-186"
         style="fill:#f7a491;fill-opacity:1;fill-rule:nonzero;stroke:none"
         id="path106" />
      <path
         d="m 16161.1,12346.9 c -174.8,336.8 -256.1,219.4 -245.3,172.9 10.7,-46.5 52.5,-502.5 40.6,-501.4 -11.9,1.2 -257.7,112.6 -257.7,112.6 l -8.2,-164.5 c 0,0 127.3,-400.3 62.3,-666.1 0,0 250.8,-6.9 497.2,114.6 l -16,207.6 127.5,-142.7 c 65.2,44.7 127.1,100.4 180.6,169.9 0,0 -206.1,360.3 -381,697.1"
         style="fill:#f7cc7f;fill-opacity:1;fill-rule:nonzero;stroke:none"
         id="path108" />
      <path
         d="m 10030.3,9296.5 h 38.1 c 13.9,0 25.2,11.3 25.2,25.2 v 233.5 c 0,14 -11.3,25.3 -25.2,25.3 h -38.1 c -13.9,0 -25.2,-11.3 -25.2,-25.3 v -233.5 c 0,-13.9 11.3,-25.2 25.2,-25.2"
         style="fill:#b75742;fill-opacity:1;fill-rule:nonzero;stroke:none"
         id="path110" />
      <path
         d="m 9584.61,12567.4 c 73.98,96.9 156.94,150.4 246.6,159.1 138.28,13.4 248.49,-82.9 249.59,-83.8 l 55.1,62.1 c -5.6,4.9 -138.76,121.2 -312.69,104.4 -113.56,-11 -216.04,-75.4 -304.59,-191.4 l 65.99,-50.4"
         style="fill:#50bfa5;fill-opacity:1;fill-rule:nonzero;stroke:none"
         id="path112" />
      <path
         d="m 10244.4,12751.5 315.5,-315.5 c 34.7,-34.7 34.7,-91 0,-125.8 l -94.9,-94.8 c -34.7,-34.7 -91,-34.7 -125.8,0 l -315.4,315.5 c -34.78,34.7 -34.78,91 0,125.8 l 94.8,94.8 c 34.7,34.8 91,34.8 125.8,0"
         style="fill:#b75742;fill-opacity:1;fill-rule:nonzero;stroke:none"
         id="path114" />
      <path
         d="m 11058.6,12443.1 -807.1,-807.2 c -223,222.9 -223,584.3 0,807.2 222.9,222.9 584.2,222.9 807.1,0"
         style="fill:#f7cc7f;fill-opacity:1;fill-rule:nonzero;stroke:none"
         id="path116" />
      <path
         d="m 9470.34,12562.6 -733.1,-1493.4 97.1,-47.7 733.1,1493.4 z m -849.06,-1533 809.47,1648.9 252.65,-124 -809.46,-1648.9 -252.66,124"
         style="fill:#b75742;fill-opacity:1;fill-rule:nonzero;stroke:none"
         id="path118" />
      <path
         d="m 8777.69,10905.8 -102.37,-35 537.59,-1574.3 102.36,34.9 z m -212.36,19 266.35,91 593.58,-1738.4 -266.35,-90.9 -593.58,1738.3"
         style="fill:#b75742;fill-opacity:1;fill-rule:nonzero;stroke:none"
         id="path120" />
      <path
         d="m 10217.1,11566.5 26.4,-26.5 c 9.7,-9.7 25.4,-9.7 35.1,0 l 875.9,875.9 c 9.7,9.7 9.7,25.4 0,35.1 l -26.4,26.4 c -9.7,9.7 -25.4,9.7 -35.1,0 l -875.9,-875.8 c -9.7,-9.7 -9.7,-25.4 0,-35.1"
         style="fill:#96d9c9;fill-opacity:1;fill-rule:nonzero;stroke:none"
         id="path122" />
      <path
         d="m 8528.11,10938.5 c 0,-113.4 91.88,-205.2 205.21,-205.2 113.34,0 205.22,91.8 205.22,205.2 0,113.3 -91.88,205.2 -205.22,205.2 -113.33,0 -205.21,-91.9 -205.21,-205.2"
         style="fill:#f7cc7f;fill-opacity:1;fill-rule:nonzero;stroke:none"
         id="path124" />
      <path
         d="M 10507,9445 H 8918.99 c -88.53,0 -160.3,-71.8 -160.3,-160.3 v -120.8 h 1908.61 v 120.8 c 0,88.5 -71.8,160.3 -160.3,160.3"
         style="fill:#50bfa5;fill-opacity:1;fill-rule:nonzero;stroke:none"
         id="path126" />
      <path
         d="M 25393.3,1713.6 H 3343.33 c -34.09,0 -61.72,-27.7 -61.72,-61.7 v -93.1 c 0,-34.1 27.63,-61.7 61.72,-61.7 H 25393.3 c 34.1,0 61.7,27.6 61.7,61.7 v 93.1 c 0,34 -27.6,61.7 -61.7,61.7"
         style="fill:#b75742;fill-opacity:1;fill-rule:nonzero;stroke:none"
         id="path128" />
    </g>
  </g>
</svg>
