<?xml version="1.0" encoding="UTF-8"?>
<svg width="1200pt" height="1200pt" version="1.1" viewBox="0 0 1200 1200" xmlns="http://www.w3.org/2000/svg">
 <g>
  <path d="m1200 600c0 214.36-114.36 412.44-300 519.62-185.64 107.18-414.36 107.18-600 0-185.64-107.18-300-305.26-300-519.62s114.36-412.44 300-519.62c185.64-107.18 414.36-107.18 600 0 185.64 107.18 300 305.26 300 519.62" fill="#87cac7"/>
  <path d="m600 271.49c-181.14 0-328.51 147.37-328.51 328.51 0 181.14 147.37 328.52 328.51 328.52 181.14 0 328.52-147.37 328.52-328.52 0-181.14-147.37-328.51-328.52-328.51zm0 625.74c-163.89 0-297.22-133.33-297.22-297.23 0-163.89 133.33-297.22 297.22-297.22 163.9 0 297.23 133.33 297.23 297.22 0 163.9-133.33 297.23-297.23 297.23zm178.6-297.23c0 8.6445-7.0078 15.641-15.641 15.641l-147.32 0.003906v147.31c0 8.6445-7.0078 15.641-15.641 15.641-8.6367 0-15.641-7.0078-15.641-15.641l-0.003906-147.31h-147.31c-8.6367 0-15.641-7.0078-15.641-15.641 0-8.6367 7.0078-15.641 15.641-15.641h147.31v-147.31c0-8.6445 7.0078-15.641 15.641-15.641 8.6367 0 15.641 7.0078 15.641 15.641v147.31h147.31c8.6445 0 15.648 7 15.648 15.641z"/>
 </g>
</svg>
