<svg xmlns="http://www.w3.org/2000/svg" xmlns:xlink="http://www.w3.org/1999/xlink" width="500" zoomAndPan="magnify" viewBox="0 0 375 374.999991" height="500" preserveAspectRatio="xMidYMid meet" version="1.0"><defs><clipPath id="7337516751"><path d="M 5 4.214844 L 370.546875 4.214844 L 370.546875 370.964844 L 5 370.964844 Z M 5 4.214844 " clip-rule="nonzero"/></clipPath></defs><g clip-path="url(#7337516751)"><path fill="#000000" d="M 362.949219 145.066406 C 363.003906 144.816406 363.039062 144.5625 363.058594 144.304688 L 370.242188 93.398438 C 370.324219 92.996094 370.378906 92.574219 370.378906 92.144531 C 370.378906 88.875 367.722656 86.222656 364.457031 86.222656 L 317.851562 86.222656 C 317.84375 86.222656 317.835938 86.222656 317.824219 86.222656 C 317.816406 86.222656 317.808594 86.222656 317.796875 86.222656 L 271.25 86.222656 C 271.230469 86.222656 271.210938 86.222656 271.195312 86.222656 C 271.175781 86.222656 271.15625 86.222656 271.140625 86.222656 L 224.644531 86.222656 C 224.617188 86.222656 224.589844 86.222656 224.5625 86.222656 C 224.535156 86.222656 224.507812 86.222656 224.480469 86.222656 L 178.039062 86.222656 C 178.003906 86.222656 177.964844 86.214844 177.929688 86.214844 C 177.894531 86.214844 177.855469 86.222656 177.820312 86.222656 L 131.425781 86.222656 C 131.378906 86.222656 131.335938 86.214844 131.296875 86.214844 C 131.253906 86.214844 131.207031 86.222656 131.167969 86.222656 L 90.933594 86.222656 L 66.292969 21.347656 C 65.585938 19.472656 64.023438 18.171875 62.230469 17.695312 L 12.722656 5.039062 C 9.566406 4.230469 6.34375 6.144531 5.539062 9.3125 C 4.734375 12.480469 6.648438 15.699219 9.8125 16.496094 L 56.335938 28.394531 L 89.828125 116.546875 L 120.472656 197.21875 C 120.546875 197.472656 120.648438 197.722656 120.757812 197.96875 L 125.625 210.78125 C 125.707031 211.046875 125.808594 211.304688 125.917969 211.558594 L 139.460938 247.210938 L 125.644531 260.445312 C 113.644531 271.929688 105.886719 282.894531 102.398438 292.230469 C 100.148438 298.265625 99.601562 303.792969 100.761719 308.570312 C 102.035156 313.851562 105.238281 318.050781 110.351562 320.871094 C 112.054688 321.804688 113.957031 322.582031 116.082031 323.175781 C 111.640625 328.25 108.941406 334.875 108.941406 342.132812 C 108.941406 349.894531 112.027344 356.949219 117.042969 362.140625 L 117.378906 362.515625 C 122.59375 367.734375 129.796875 370.953125 137.75 370.953125 C 145.703125 370.953125 152.910156 367.722656 158.117188 362.515625 L 158.117188 362.488281 C 163.324219 357.269531 166.554688 350.066406 166.554688 342.132812 C 166.554688 335.5625 164.339844 329.503906 160.617188 324.652344 L 283.722656 324.652344 C 280.234375 329.417969 278.167969 335.285156 278.167969 341.636719 C 278.167969 349.398438 281.25 356.457031 286.265625 361.644531 L 286.601562 362.023438 C 291.820312 367.238281 299.019531 370.460938 306.972656 370.460938 C 314.925781 370.460938 322.136719 367.230469 327.34375 362.023438 L 327.34375 361.996094 C 332.550781 356.777344 335.78125 349.574219 335.78125 341.636719 C 335.78125 335.296875 333.710938 329.417969 330.226562 324.652344 L 341.207031 324.652344 C 344.472656 324.652344 347.125 321.996094 347.125 318.730469 C 347.125 315.460938 344.472656 312.808594 341.207031 312.808594 C 341.207031 312.808594 127.867188 312.808594 127.867188 312.808594 C 122.667969 312.808594 118.734375 311.992188 116.054688 310.511719 C 113.984375 309.367188 112.714844 307.753906 112.238281 305.789062 C 111.640625 303.316406 112.046875 300.113281 113.453125 296.332031 C 116.335938 288.617188 123.125 279.191406 133.832031 268.9375 L 148.984375 254.421875 L 178.121094 251.511719 C 178.386719 251.503906 178.652344 251.476562 178.917969 251.429688 L 224.761719 246.851562 C 225.027344 246.84375 225.285156 246.816406 225.539062 246.78125 L 271.394531 242.203125 C 271.660156 242.195312 271.917969 242.167969 272.164062 242.128906 L 318.027344 237.554688 C 318.285156 237.542969 318.539062 237.515625 318.785156 237.480469 L 345.496094 234.816406 C 348.242188 234.652344 350.585938 232.566406 350.980469 229.738281 L 355.636719 196.75 C 355.691406 196.503906 355.726562 196.246094 355.746094 195.980469 Z M 149.773438 354.148438 C 146.707031 357.214844 142.453125 359.121094 137.765625 359.121094 C 133.082031 359.121094 128.835938 357.214844 125.761719 354.148438 L 125.488281 353.894531 C 122.578125 350.847656 120.792969 346.699219 120.792969 342.132812 C 120.792969 337.429688 122.6875 333.179688 125.761719 330.125 C 128.828125 327.058594 133.082031 325.15625 137.765625 325.15625 C 142.453125 325.15625 146.699219 327.058594 149.773438 330.125 L 150.046875 330.378906 C 152.957031 333.429688 154.742188 337.566406 154.742188 342.132812 C 154.742188 346.847656 152.839844 351.09375 149.773438 354.148438 Z M 318.980469 329.628906 L 319.253906 329.886719 C 322.164062 332.933594 323.949219 337.070312 323.949219 341.636719 C 323.949219 346.34375 322.054688 350.589844 318.980469 353.648438 C 315.914062 356.714844 311.65625 358.617188 306.972656 358.617188 C 302.289062 358.617188 298.042969 356.714844 294.96875 353.648438 L 294.691406 353.390625 C 291.78125 350.34375 290 346.195312 290 341.628906 C 290 336.925781 291.894531 332.679688 294.96875 329.621094 C 298.03125 326.554688 302.289062 324.652344 306.972656 324.652344 C 311.65625 324.660156 315.902344 326.5625 318.980469 329.628906 Z M 150.285156 242.460938 L 137.21875 208.0625 L 137.21875 201.445312 L 172.019531 201.445312 L 172.019531 240.289062 Z M 265.273438 137.90625 L 230.472656 137.90625 L 230.472656 98.046875 L 265.273438 98.046875 C 265.273438 105.890625 265.273438 120.746094 265.273438 137.90625 Z M 277.113281 98.058594 L 311.90625 98.058594 L 311.90625 137.917969 L 277.105469 137.917969 L 277.105469 98.058594 Z M 230.480469 149.75 L 265.28125 149.75 C 265.28125 162.988281 265.28125 176.898438 265.28125 189.613281 L 230.480469 189.613281 Z M 218.652344 189.601562 L 183.859375 189.601562 L 183.859375 149.742188 L 218.652344 149.742188 Z M 218.652344 137.90625 L 183.859375 137.90625 L 183.859375 98.046875 L 218.652344 98.046875 Z M 172.019531 137.90625 L 137.21875 137.90625 L 137.21875 98.046875 L 172.019531 98.046875 Z M 172.019531 149.75 L 172.019531 189.613281 L 137.21875 189.613281 L 137.21875 149.75 Z M 125.386719 176.90625 L 115.066406 149.742188 L 125.386719 149.742188 Z M 183.851562 201.4375 L 218.640625 201.4375 L 218.640625 235.632812 L 183.851562 239.101562 Z M 230.480469 201.4375 L 265.28125 201.4375 C 265.28125 214.277344 265.28125 224.941406 265.28125 230.972656 L 230.480469 234.449219 Z M 277.113281 201.4375 L 311.90625 201.4375 L 311.90625 226.324219 L 277.105469 229.800781 L 277.105469 201.4375 Z M 277.113281 189.601562 L 277.113281 149.742188 L 311.90625 149.742188 L 311.90625 189.601562 Z M 323.746094 149.75 L 350.367188 149.75 L 344.738281 189.613281 L 323.746094 189.613281 Z M 352.03125 137.90625 L 323.738281 137.90625 L 323.738281 98.046875 L 357.660156 98.046875 Z M 125.386719 98.058594 L 125.386719 137.917969 L 110.570312 137.917969 L 100.871094 112.398438 L 95.425781 98.066406 L 125.386719 98.066406 Z M 323.746094 225.140625 L 323.746094 201.4375 L 343.074219 201.4375 L 339.953125 223.523438 Z M 323.746094 225.140625 " fill-opacity="1" fill-rule="nonzero"/></g></svg>