<svg xmlns="http://www.w3.org/2000/svg" xmlns:xlink="http://www.w3.org/1999/xlink" width="500" zoomAndPan="magnify" viewBox="0 0 375 374.999991" height="500" preserveAspectRatio="xMidYMid meet" version="1.0"><defs><clipPath id="13d50caf62"><path d="M 0 15.9375 L 373 15.9375 L 373 359.4375 L 0 359.4375 Z M 0 15.9375 " clip-rule="nonzero"/></clipPath></defs><g clip-path="url(#13d50caf62)"><path fill="#000000" d="M 370.058594 325.703125 L 321.605469 252.773438 C 318.359375 247.894531 312.898438 245.363281 307.441406 245.65625 L 296.308594 228.902344 C 297.726562 227.675781 299.09375 226.394531 300.433594 225.070312 C 307.453125 218.042969 312.964844 209.84375 316.832031 200.726562 C 320.816406 191.28125 322.851562 181.25 322.851562 170.90625 C 322.851562 160.5625 320.828125 150.542969 316.832031 141.085938 C 312.976562 131.964844 307.460938 123.769531 300.433594 116.742188 C 294.121094 110.421875 286.863281 105.316406 278.84375 101.550781 L 278.84375 56.125 C 278.84375 52.378906 275.8125 49.34375 272.070312 49.34375 L 243.292969 49.34375 L 243.292969 22.71875 C 243.292969 18.972656 240.261719 15.9375 236.523438 15.9375 L 77.152344 15.9375 C 75.367188 15.9375 73.648438 16.644531 72.378906 17.917969 L 2.054688 88 C 0.773438 89.273438 0.0546875 91.003906 0.0546875 92.804688 L 0.078125 319.25 C 0.078125 322.996094 3.109375 326.03125 6.851562 326.03125 L 35.628906 326.03125 L 35.628906 352.65625 C 35.628906 356.402344 38.660156 359.4375 42.398438 359.4375 L 272.058594 359.4375 C 275.800781 359.4375 278.832031 356.402344 278.832031 352.65625 L 278.832031 240.261719 C 280.226562 239.609375 281.597656 238.910156 282.933594 238.179688 L 293.894531 254.675781 C 291.523438 259.601562 291.726562 265.625 294.972656 270.507812 L 343.425781 343.4375 C 346.503906 348.070312 351.582031 350.578125 356.75 350.578125 C 359.792969 350.578125 362.871094 349.710938 365.589844 347.902344 C 372.945312 343 374.945312 333.058594 370.058594 325.703125 Z M 306.574219 170.90625 C 306.574219 204.164062 279.539062 231.230469 246.316406 231.230469 C 213.09375 231.230469 186.058594 204.164062 186.058594 170.90625 C 186.058594 137.644531 213.09375 110.582031 246.316406 110.582031 C 279.539062 110.582031 306.574219 137.644531 306.574219 170.90625 Z M 37.605469 109.726562 C 36.335938 110.996094 35.617188 112.714844 35.617188 114.515625 L 35.617188 312.460938 L 13.625 312.460938 L 13.601562 95.613281 L 79.949219 29.496094 L 229.738281 29.496094 L 229.738281 49.34375 L 100.726562 49.34375 C 98.929688 49.34375 97.210938 50.0625 95.941406 51.335938 Z M 96.4375 70.011719 L 96.4375 107.734375 L 58.753906 107.734375 Z M 49.171875 345.867188 L 49.171875 121.296875 L 103.210938 121.296875 C 106.949219 121.296875 109.984375 118.261719 109.984375 114.515625 L 109.984375 62.90625 L 265.285156 62.90625 L 265.285156 96.683594 C 259.132812 95.109375 252.785156 94.308594 246.316406 94.308594 C 235.992188 94.308594 225.976562 96.332031 216.527344 100.335938 C 207.417969 104.195312 199.230469 109.714844 192.210938 116.753906 C 185.191406 123.78125 179.675781 131.976562 175.8125 141.097656 C 171.824219 150.542969 169.792969 160.570312 169.792969 170.917969 C 169.792969 181.261719 171.816406 191.28125 175.8125 200.738281 C 179.664062 209.855469 185.179688 218.050781 192.210938 225.082031 C 199.230469 232.109375 207.417969 237.628906 216.527344 241.496094 C 225.964844 245.488281 235.984375 247.523438 246.316406 247.523438 C 252.785156 247.523438 259.121094 246.726562 265.285156 245.152344 L 265.285156 345.886719 L 49.171875 345.886719 Z M 49.171875 345.867188 " fill-opacity="1" fill-rule="nonzero"/></g><path fill="#000000" d="M 76.769531 153.34375 L 141.285156 153.34375 L 141.285156 164.460938 L 76.769531 164.460938 Z M 76.769531 153.34375 " fill-opacity="1" fill-rule="nonzero"/><path fill="#000000" d="M 76.769531 188.863281 L 141.285156 188.863281 L 141.285156 199.984375 L 76.769531 199.984375 Z M 76.769531 188.863281 " fill-opacity="1" fill-rule="nonzero"/><path fill="#000000" d="M 76.769531 224.382812 L 141.285156 224.382812 L 141.285156 235.503906 L 76.769531 235.503906 Z M 76.769531 224.382812 " fill-opacity="1" fill-rule="nonzero"/><path fill="#000000" d="M 76.769531 259.902344 L 238.691406 259.902344 L 238.691406 271.023438 L 76.769531 271.023438 Z M 76.769531 259.902344 " fill-opacity="1" fill-rule="nonzero"/><path fill="#000000" d="M 76.769531 295.425781 L 238.691406 295.425781 L 238.691406 306.542969 L 76.769531 306.542969 Z M 76.769531 295.425781 " fill-opacity="1" fill-rule="nonzero"/></svg>