<svg xmlns="http://www.w3.org/2000/svg" xmlns:xlink="http://www.w3.org/1999/xlink" width="500" zoomAndPan="magnify" viewBox="0 0 375 374.999991" height="500" preserveAspectRatio="xMidYMid meet" version="1.0"><defs><clipPath id="57b906e2f9"><path d="M 29 35.859375 L 333 35.859375 L 333 338.859375 L 29 338.859375 Z M 29 35.859375 " clip-rule="nonzero"/></clipPath></defs><g clip-path="url(#57b906e2f9)"><path fill="#000000" d="M 295.371094 273.839844 C 286.722656 269.203125 276.886719 265.183594 266.1875 261.804688 L 265.175781 270.011719 C 274.269531 272.957031 282.664062 276.402344 290.160156 280.304688 C 270.046875 303.839844 242.460938 320.808594 211.105469 327.515625 C 216.570312 323.179688 221.765625 317.640625 226.597656 310.96875 C 225.4375 309.425781 224.59375 307.632812 224.171875 305.664062 L 223.246094 301.382812 C 212.140625 318.675781 198.957031 328.777344 185.121094 330.4375 L 185.121094 297.730469 C 183.867188 299.832031 182.105469 301.632812 179.90625 302.90625 L 177.886719 304.070312 C 177.585938 304.246094 177.269531 304.382812 176.957031 304.53125 L 176.957031 330.4375 C 160.261719 328.433594 144.503906 314.175781 132.214844 289.761719 C 128.183594 281.753906 124.699219 272.945312 121.765625 263.539062 C 127.359375 262.402344 133.136719 261.445312 139.023438 260.640625 C 139.238281 259.5625 139.539062 258.503906 139.957031 257.484375 L 136.058594 252.832031 C 130.40625 253.644531 124.859375 254.589844 119.46875 255.699219 C 114.195312 236.117188 111.277344 214.230469 110.964844 191.4375 L 161.898438 191.4375 L 153.601562 183.980469 C 153.355469 183.757812 153.136719 183.515625 152.910156 183.28125 L 110.964844 183.28125 C 111.277344 160.613281 114.164062 138.847656 119.382812 119.351562 C 137.3125 123.046875 156.832031 125.132812 176.957031 125.378906 L 176.957031 155.234375 C 178.867188 155.503906 180.738281 155.992188 182.535156 156.75 L 185.121094 157.835938 L 185.121094 125.378906 C 205.246094 125.128906 224.765625 123.042969 242.691406 119.34375 C 247.675781 137.957031 250.503906 158.644531 251.027344 180.199219 L 258.6875 175.761719 C 258.808594 175.691406 258.9375 175.632812 259.0625 175.5625 C 258.261719 155.097656 255.410156 135.445312 250.652344 117.570312 C 267.558594 113.511719 282.824219 107.964844 295.554688 101.121094 C 312.953125 124.121094 323.578125 152.5 324.445312 183.28125 L 306.320312 183.28125 C 306.851562 185.960938 306.707031 188.757812 305.914062 191.4375 L 324.445312 191.4375 C 323.574219 222.324219 312.875 250.792969 295.371094 273.839844 Z M 71.917969 280.304688 C 83.855469 274.085938 98.066406 269.035156 113.765625 265.304688 C 116.871094 275.394531 120.597656 284.839844 124.917969 293.429688 C 132.421875 308.328125 141.265625 319.816406 150.96875 327.515625 C 119.617188 320.808594 92.03125 303.835938 71.917969 280.304688 Z M 37.636719 191.4375 L 102.800781 191.4375 C 103.113281 214.796875 106.101562 237.277344 111.503906 257.472656 C 94.648438 261.507812 79.417969 267.027344 66.707031 273.835938 C 49.203125 250.792969 38.503906 222.324219 37.636719 191.4375 Z M 66.511719 101.132812 C 79.246094 107.976562 94.511719 113.523438 111.421875 117.578125 C 106.074219 137.6875 103.113281 160.046875 102.800781 183.28125 L 37.636719 183.28125 C 38.5 152.503906 49.121094 124.128906 66.511719 101.132812 Z M 176.957031 44.28125 L 176.957031 117.222656 C 157.597656 116.980469 138.859375 115.003906 121.660156 111.507812 C 124.613281 101.976562 128.136719 93.058594 132.214844 84.957031 C 144.503906 60.542969 160.261719 46.285156 176.957031 44.28125 Z M 150.96875 47.203125 C 141.265625 54.902344 132.421875 66.390625 124.917969 81.289062 C 120.550781 89.96875 116.789062 99.523438 113.660156 109.738281 C 97.910156 105.988281 83.664062 100.910156 71.710938 94.664062 C 91.839844 71 119.507812 53.933594 150.96875 47.203125 Z M 185.121094 44.28125 C 201.816406 46.285156 217.574219 60.542969 229.863281 84.957031 C 233.941406 93.058594 237.460938 101.972656 240.414062 111.5 C 223.214844 115 204.476562 116.976562 185.121094 117.222656 Z M 290.359375 94.648438 C 278.40625 100.898438 264.160156 105.980469 248.414062 109.730469 C 245.289062 99.523438 241.527344 89.96875 237.15625 81.289062 C 229.65625 66.390625 220.808594 54.902344 211.105469 47.203125 C 242.566406 53.933594 270.226562 70.992188 290.359375 94.648438 Z M 181.039062 35.867188 C 97.429688 35.867188 29.40625 103.828125 29.40625 187.359375 C 29.40625 270.890625 97.429688 338.851562 181.039062 338.851562 C 264.648438 338.851562 332.667969 270.890625 332.667969 187.359375 C 332.667969 103.828125 264.648438 35.867188 181.039062 35.867188 " fill-opacity="1" fill-rule="nonzero"/></g><path fill="#000000" d="M 177.976562 224.792969 C 178.636719 224.304688 179.285156 223.824219 179.9375 223.347656 C 179.9375 223.347656 182.089844 221.789062 182.609375 221.417969 L 185.121094 218.910156 L 185.121094 212.308594 L 176.957031 204.972656 L 176.957031 225.5625 L 177.976562 224.792969 " fill-opacity="1" fill-rule="nonzero"/><path fill="#000000" d="M 138.886719 266.457031 C 116.316406 276.15625 94.980469 283.925781 76.039062 289.253906 C 35.722656 300.59375 17.542969 297.613281 13.972656 291.039062 C 10.574219 284.777344 17.25 268.824219 46.175781 242.828125 L 40.714844 236.761719 C 11.507812 263.015625 0.09375 282.582031 6.796875 294.929688 C 10.585938 301.910156 19.625 305.011719 32.40625 305.007812 C 57.984375 305.007812 98.546875 292.578125 141.972656 273.941406 C 140.800781 272.324219 139.886719 270.492188 139.320312 268.488281 C 139.128906 267.816406 138.988281 267.140625 138.886719 266.457031 " fill-opacity="1" fill-rule="nonzero"/><path fill="#000000" d="M 365.632812 100.472656 C 358.976562 88.207031 336.5625 87.027344 299.023438 96.972656 L 301.117188 104.855469 C 338.253906 95.023438 355.082031 98.152344 358.457031 104.363281 C 362.023438 110.9375 354.613281 127.785156 323.113281 155.363281 C 316.308594 161.320312 308.777344 167.417969 300.664062 173.59375 C 300.796875 173.707031 300.929688 173.824219 301.054688 173.941406 C 301.363281 174.226562 301.613281 174.46875 301.851562 174.71875 C 301.996094 174.863281 302.136719 175.015625 302.269531 175.164062 C 302.578125 175.507812 302.894531 175.898438 303.195312 176.296875 L 303.457031 176.652344 C 303.773438 177.101562 304.074219 177.558594 304.347656 178.035156 C 304.753906 178.734375 305.09375 179.460938 305.394531 180.203125 C 347.640625 148.191406 374.886719 117.519531 365.632812 100.472656 " fill-opacity="1" fill-rule="nonzero"/><path fill="#000000" d="M 221.566406 241.914062 L 234.8125 303.371094 C 235.222656 305.273438 237.371094 306.222656 239.058594 305.246094 L 245.710938 301.394531 C 248.851562 299.578125 250.957031 296.394531 251.402344 292.796875 L 260.433594 219.484375 L 278.109375 209.25 C 278.554688 208.992188 278.988281 208.726562 279.421875 208.453125 C 279.515625 208.390625 279.613281 208.332031 279.707031 208.269531 C 280.121094 208.003906 280.535156 207.726562 280.941406 207.445312 C 281.015625 207.394531 281.085938 207.34375 281.15625 207.292969 C 281.515625 207.035156 281.871094 206.777344 282.21875 206.511719 C 282.300781 206.445312 282.386719 206.386719 282.464844 206.324219 C 282.847656 206.027344 283.226562 205.726562 283.59375 205.417969 C 283.691406 205.335938 283.792969 205.25 283.890625 205.167969 C 284.222656 204.882812 284.550781 204.597656 284.875 204.304688 C 284.925781 204.253906 284.980469 204.210938 285.03125 204.160156 C 285.382812 203.84375 285.722656 203.511719 286.058594 203.179688 C 286.164062 203.074219 286.269531 202.96875 286.375 202.863281 C 286.703125 202.535156 287.023438 202.203125 287.335938 201.863281 C 287.421875 201.769531 287.503906 201.675781 287.589844 201.582031 C 287.839844 201.304688 288.089844 201.023438 288.332031 200.738281 C 288.433594 200.617188 288.535156 200.503906 288.632812 200.386719 C 288.921875 200.042969 289.199219 199.691406 289.476562 199.339844 C 289.578125 199.210938 289.675781 199.078125 289.777344 198.945312 C 289.996094 198.65625 290.214844 198.363281 290.425781 198.0625 C 290.503906 197.957031 290.582031 197.851562 290.65625 197.742188 C 290.65625 197.742188 290.65625 197.742188 290.660156 197.742188 C 290.925781 197.359375 291.1875 196.96875 291.441406 196.578125 C 291.550781 196.410156 291.65625 196.238281 291.765625 196.066406 C 291.929688 195.800781 292.097656 195.53125 292.257812 195.257812 C 292.359375 195.085938 292.460938 194.917969 292.5625 194.742188 C 292.757812 194.398438 292.953125 194.050781 293.140625 193.699219 C 293.191406 193.605469 293.242188 193.515625 293.292969 193.421875 C 293.523438 192.984375 293.742188 192.539062 293.957031 192.089844 C 294.023438 191.945312 294.089844 191.796875 294.160156 191.652344 C 294.316406 191.3125 294.464844 190.972656 294.613281 190.632812 C 294.675781 190.488281 294.738281 190.34375 294.796875 190.199219 C 294.992188 189.726562 295.183594 189.246094 295.363281 188.765625 C 296.042969 186.921875 295.800781 184.996094 294.90625 183.449219 C 294.804688 183.277344 294.695312 183.113281 294.582031 182.953125 C 294.550781 182.914062 294.523438 182.875 294.492188 182.832031 C 294.378906 182.683594 294.261719 182.535156 294.136719 182.394531 C 294.101562 182.359375 294.070312 182.324219 294.035156 182.289062 C 293.9375 182.183594 293.832031 182.082031 293.726562 181.984375 C 293.671875 181.9375 293.621094 181.886719 293.570312 181.839844 C 293.441406 181.730469 293.308594 181.625 293.167969 181.523438 C 293.101562 181.476562 293.03125 181.429688 292.964844 181.382812 C 292.867188 181.320312 292.769531 181.257812 292.671875 181.203125 C 292.601562 181.160156 292.527344 181.113281 292.457031 181.074219 C 292.457031 181.074219 292.453125 181.074219 292.453125 181.074219 C 292.296875 180.988281 292.136719 180.910156 291.972656 180.839844 C 291.890625 180.804688 291.8125 180.777344 291.730469 180.746094 C 291.605469 180.695312 291.480469 180.652344 291.351562 180.613281 C 291.28125 180.589844 291.210938 180.566406 291.136719 180.546875 C 290.933594 180.492188 290.730469 180.441406 290.515625 180.40625 C 281.4375 178.875 272.113281 180.5625 264.144531 185.171875 L 262.128906 186.339844 L 252.640625 191.832031 L 246.46875 195.40625 L 178.3125 166.773438 C 174.96875 165.367188 171.160156 165.609375 168.019531 167.425781 L 161.363281 171.28125 C 159.675781 172.257812 159.433594 174.589844 160.882812 175.894531 L 207.664062 217.9375 C 205.566406 219.203125 203.492188 220.503906 201.429688 221.824219 C 201.425781 221.828125 201.421875 221.828125 201.421875 221.828125 C 200.121094 222.660156 198.824219 223.503906 197.535156 224.355469 C 197.5 224.378906 197.464844 224.402344 197.429688 224.429688 C 196.167969 225.261719 194.914062 226.105469 193.671875 226.957031 C 193.613281 226.996094 193.554688 227.035156 193.5 227.074219 C 192.214844 227.953125 190.941406 228.84375 189.671875 229.746094 C 188.925781 230.277344 188.183594 230.808594 187.441406 231.347656 C 187.082031 231.605469 186.722656 231.867188 186.363281 232.128906 C 185.734375 232.589844 185.109375 233.050781 184.484375 233.515625 C 183.929688 233.925781 183.378906 234.339844 182.828125 234.753906 C 182.355469 235.109375 181.882812 235.464844 181.414062 235.824219 C 180.355469 236.632812 179.304688 237.441406 178.257812 238.261719 L 166.574219 247.445312 L 143.257812 233.171875 C 142.089844 232.457031 140.625 232.4375 139.4375 233.125 L 137.421875 234.292969 C 136.5625 234.789062 136.296875 235.878906 136.777344 236.707031 C 136.828125 236.792969 136.886719 236.878906 136.953125 236.957031 L 154.011719 257.3125 L 152.242188 258.703125 C 150.183594 260.320312 149.085938 263.015625 149.796875 265.535156 C 150.875 269.351562 154.902344 271.171875 158.34375 269.78125 L 160.695312 268.832031 L 169.886719 293.742188 C 169.921875 293.839844 169.964844 293.933594 170.015625 294.019531 C 170.496094 294.847656 171.574219 295.160156 172.433594 294.660156 L 174.449219 293.492188 C 175.632812 292.808594 176.347656 291.527344 176.308594 290.160156 L 175.507812 262.855469 L 189.292969 257.292969 C 200.355469 252.824219 211.132812 247.6875 221.566406 241.914062 " fill-opacity="1" fill-rule="nonzero"/></svg>