<svg xmlns="http://www.w3.org/2000/svg" xmlns:xlink="http://www.w3.org/1999/xlink" width="500" zoomAndPan="magnify" viewBox="0 0 375 374.999991" height="500" preserveAspectRatio="xMidYMid meet" version="1.0"><path fill="#000000" d="M 363.28125 70.3125 L 292.96875 70.3125 L 292.96875 35.15625 C 292.96875 15.773438 277.195312 0 257.8125 0 L 117.1875 0 C 97.804688 0 82.03125 15.773438 82.03125 35.15625 L 82.03125 70.3125 L 11.71875 70.3125 C 5.25 70.3125 0 75.550781 0 82.03125 L 0 363.28125 C 0 369.761719 5.25 375 11.71875 375 L 363.28125 375 C 369.761719 375 375 369.761719 375 363.28125 L 375 82.03125 C 375 75.550781 369.761719 70.3125 363.28125 70.3125 Z M 105.46875 35.15625 C 105.46875 28.6875 110.730469 23.4375 117.1875 23.4375 L 257.8125 23.4375 C 264.28125 23.4375 269.53125 28.6875 269.53125 35.15625 L 269.53125 70.3125 L 105.46875 70.3125 Z M 23.4375 93.75 L 351.5625 93.75 L 351.5625 152.34375 C 351.5625 171.726562 335.789062 187.5 316.40625 187.5 L 222.65625 187.5 L 222.65625 175.78125 C 222.65625 156.398438 206.882812 140.625 187.5 140.625 C 168.117188 140.625 152.34375 156.398438 152.34375 175.78125 L 152.34375 187.5 L 58.59375 187.5 C 39.210938 187.5 23.4375 171.726562 23.4375 152.34375 Z M 199.21875 187.5 L 175.78125 187.5 L 175.78125 175.78125 C 175.78125 169.3125 181.042969 164.0625 187.5 164.0625 C 193.957031 164.0625 199.21875 169.3125 199.21875 175.78125 Z M 175.78125 210.9375 L 199.21875 210.9375 L 199.21875 222.65625 C 199.21875 229.125 193.957031 234.375 187.5 234.375 C 181.042969 234.375 175.78125 229.125 175.78125 222.65625 Z M 23.4375 351.5625 L 23.4375 198.914062 C 33.257812 206.355469 45.351562 210.9375 58.59375 210.9375 L 152.34375 210.9375 L 152.34375 222.65625 C 152.34375 242.039062 168.117188 257.8125 187.5 257.8125 C 206.882812 257.8125 222.65625 242.039062 222.65625 222.65625 L 222.65625 210.9375 L 316.40625 210.9375 C 329.648438 210.9375 341.742188 206.355469 351.5625 198.914062 L 351.5625 351.5625 Z M 23.4375 351.5625 " fill-opacity="1" fill-rule="nonzero"/></svg>